{
  "accessors": [
    {
      "bufferView": 2,
      "componentType": 5126,
      "count": 3818,
      "max": [
        14.586505889892578,
        14.540246963500977,
        10.020769119262695
      ],
      "min": [
        -14.911279678344727,
        -15.262429237365723,
        0.28660106658935547
      ],
      "type": "VEC3"
    },
    {
      "bufferView": 2,
      "byteOffset": 45816,
      "componentType": 5126,
      "count": 3818,
      "max": [
        0.9910956025123596,
        0.9987375736236572,
        0.9999977350234985
      ],
      "min": [
        -0.9866205453872681,
        -0.9912411570549011,
        -0.9266319274902344
      ],
      "type": "VEC3"
    },
    {
      "bufferView": 1,
      "componentType": 5126,
      "count": 3818,
      "max": [
        0.43501752614974976,
        0.4454074501991272
      ],
      "min": [
        0.0,
        0.0
      ],
      "type": "VEC2"
    },
    {
      "bufferView": 0,
      "componentType": 5125,
      "count": 4914,
      "type": "SCALAR"
    },
    {
      "bufferView": 2,
      "byteOffset": 91632,
      "componentType": 5126,
      "count": 1871,
      "max": [
        14.341217041015625,
        14.232205390930176,
        4.866196155548096
      ],
      "min": [
        -14.642337799072266,
        -14.690195083618164,
        -4.829583644866943
      ],
      "type": "VEC3"
    },
    {
      "bufferView": 2,
      "byteOffset": 114084,
      "componentType": 5126,
      "count": 1871,
      "max": [
        1.0,
        1.0,
        0.9999997019767761
      ],
      "min": [
        -1.0,
        -1.0,
        -1.0
      ],
      "type": "VEC3"
    },
    {
      "bufferView": 1,
      "byteOffset": 30544,
      "componentType": 5126,
      "count": 1871,
      "max": [
        0.8750001192092896,
        1.0
      ],
      "min": [
        0.0,
        0.0
      ],
      "type": "VEC2"
    },
    {
      "bufferView": 0,
      "byteOffset": 19656,
      "componentType": 5125,
      "count": 2259,
      "type": "SCALAR"
    },
    {
      "bufferView": 2,
      "byteOffset": 136536,
      "componentType": 5126,
      "count": 1737,
      "max": [
        10.365290641784668,
        11.29197883605957,
        5.234509468078613
      ],
      "min": [
        -11.538013458251953,
        -11.206852912902832,
        -16.26361083984375
      ],
      "type": "VEC3"
    },
    {
      "bufferView": 2,
      "byteOffset": 157380,
      "componentType": 5126,
      "count": 1737,
      "max": [
        1.0,
        0.9427828788757324,
        0.8803836107254028
      ],
      "min": [
        -0.9610236883163452,
        -1.0,
        -0.9853963255882263
      ],
      "type": "VEC3"
    },
    {
      "bufferView": 1,
      "byteOffset": 45512,
      "componentType": 5126,
      "count": 1737,
      "max": [
        0.6096702814102173,
        0.8306105136871338
      ],
      "min": [
        0.0,
        0.0
      ],
      "type": "VEC2"
    },
    {
      "bufferView": 0,
      "byteOffset": 28692,
      "componentType": 5125,
      "count": 1815,
      "type": "SCALAR"
    },
    {
      "bufferView": 2,
      "byteOffset": 178224,
      "componentType": 5126,
      "count": 384,
      "max": [
        8.714691162109375,
        5.427734375,
        4.687122821807861
      ],
      "min": [
        -6.120503902435303,
        -9.40746021270752,
        3.82677960395813
      ],
      "type": "VEC3"
    },
    {
      "bufferView": 2,
      "byteOffset": 182832,
      "componentType": 5126,
      "count": 384,
      "max": [
        0.26312804222106934,
        0.2934260666370392,
        0.9999589920043945
      ],
      "min": [
        -0.3290865421295166,
        -0.34556418657302856,
        0.9258941411972046
      ],
      "type": "VEC3"
    },
    {
      "bufferView": 1,
      "byteOffset": 59408,
      "componentType": 5126,
      "count": 384,
      "max": [
        1.0,
        1.0
      ],
      "min": [
        0.0,
        0.0
      ],
      "type": "VEC2"
    },
    {
      "bufferView": 0,
      "byteOffset": 35952,
      "componentType": 5125,
      "count": 384,
      "type": "SCALAR"
    },
    {
      "bufferView": 2,
      "byteOffset": 187440,
      "componentType": 5126,
      "count": 84,
      "max": [
        1.2935277223587036,
        6.238859176635742,
        4.869802951812744
      ],
      "min": [
        -0.9785276651382446,
        0.8151927590370178,
        4.712882041931152
      ],
      "type": "VEC3"
    },
    {
      "bufferView": 2,
      "byteOffset": 188448,
      "componentType": 5126,
      "count": 84,
      "max": [
        1.0,
        1.0,
        1.0
      ],
      "min": [
        -1.0,
        -1.0,
        -1.0
      ],
      "type": "VEC3"
    },
    {
      "bufferView": 1,
      "byteOffset": 62480,
      "componentType": 5126,
      "count": 84,
      "max": [
        0.8750001192092896,
        1.0
      ],
      "min": [
        0.125,
        0.0
      ],
      "type": "VEC2"
    },
    {
      "bufferView": 0,
      "byteOffset": 37488,
      "componentType": 5125,
      "count": 156,
      "type": "SCALAR"
    },
    {
      "bufferView": 2,
      "byteOffset": 189456,
      "componentType": 5126,
      "count": 1020,
      "max": [
        0.42361465096473694,
        5.651679515838623,
        7.175732612609863
      ],
      "min": [
        -10.111522674560547,
        0.6245173215866089,
        3.564640998840332
      ],
      "type": "VEC3"
    },
    {
      "bufferView": 2,
      "byteOffset": 201696,
      "componentType": 5126,
      "count": 1020,
      "max": [
        1.0,
        1.0,
        1.0
      ],
      "min": [
        -1.0,
        -1.0,
        -1.0
      ],
      "type": "VEC3"
    },
    {
      "bufferView": 1,
      "byteOffset": 63152,
      "componentType": 5126,
      "count": 1020,
      "max": [
        1.0,
        1.0
      ],
      "min": [
        0.0,
        0.0
      ],
      "type": "VEC2"
    },
    {
      "bufferView": 0,
      "byteOffset": 38112,
      "componentType": 5125,
      "count": 1752,
      "type": "SCALAR"
    },
    {
      "bufferView": 2,
      "byteOffset": 213936,
      "componentType": 5126,
      "count": 24,
      "max": [
        -0.012645654380321503,
        1.1943978071212769,
        6.1356940269470215
      ],
      "min": [
        -0.09055401384830475,
        0.9357398748397827,
        6.023350715637207
      ],
      "type": "VEC3"
    },
    {
      "bufferView": 2,
      "byteOffset": 214224,
      "componentType": 5126,
      "count": 24,
      "max": [
        0.9998541474342346,
        0.40546947717666626,
        1.2442929175904283e-07
      ],
      "min": [
        0.8838852643966675,
        0.017081165686249733,
        -0.294111430644989
      ],
      "type": "VEC3"
    },
    {
      "bufferView": 1,
      "byteOffset": 71312,
      "componentType": 5126,
      "count": 24,
      "max": [
        1.0,
        1.0
      ],
      "min": [
        0.0,
        0.0
      ],
      "type": "VEC2"
    },
    {
      "bufferView": 0,
      "byteOffset": 45120,
      "componentType": 5125,
      "count": 24,
      "type": "SCALAR"
    },
    {
      "bufferView": 2,
      "byteOffset": 214512,
      "componentType": 5126,
      "count": 8385,
      "max": [
        9.189980506896973,
        10.724526405334473,
        2.1027274131774902
      ],
      "min": [
        -1.405113697052002,
        -5.535488605499268,
        -12.005793571472168
      ],
      "type": "VEC3"
    },
    {
      "bufferView": 2,
      "byteOffset": 315132,
      "componentType": 5126,
      "count": 8385,
      "max": [
        1.0,
        1.0,
        1.0
      ],
      "min": [
        -1.0,
        -1.0,
        -1.0
      ],
      "type": "VEC3"
    },
    {
      "bufferView": 1,
      "byteOffset": 71504,
      "componentType": 5126,
      "count": 8385,
      "max": [
        1.0000001192092896,
        1.0
      ],
      "min": [
        0.0,
        0.0
      ],
      "type": "VEC2"
    },
    {
      "bufferView": 0,
      "byteOffset": 45216,
      "componentType": 5125,
      "count": 43200,
      "type": "SCALAR"
    },
    {
      "bufferView": 3,
      "componentType": 5126,
      "count": 494,
      "max": [
        10.416666984558105
      ],
      "min": [
        0.0
      ],
      "type": "SCALAR"
    },
    {
      "bufferView": 4,
      "componentType": 5126,
      "count": 494,
      "max": [
        0.0,
        65.43816375732422,
        0.0
      ],
      "min": [
        0.0,
        0.0,
        0.0
      ],
      "type": "VEC3"
    }
  ],
  "animations": [
    {
      "channels": [
        {
          "sampler": 0,
          "target": {
            "node": 4,
            "path": "translation"
          }
        }
      ],
      "name": "Island|IslandAction",
      "samplers": [
        {
          "input": 32,
          "interpolation": "LINEAR",
          "output": 33
        }
      ]
    }
  ],
  "asset": {
    "extras": {
      "author": "CatgirlNotLive (https://sketchfab.com/CatgirlNotLive)",
      "license": "CC-BY-4.0 (http://creativecommons.org/licenses/by/4.0/)",
      "source": "https://sketchfab.com/3d-models/low-poly-floating-island-7a35716ec71b4bf8aadf40cd139e1902",
      "title": "Low-Poly Floating Island"
    },
    "generator": "Sketchfab-14.49.0",
    "version": "2.0"
  },
  "bufferViews": [
    {
      "buffer": 0,
      "byteLength": 218016,
      "name": "floatBufferViews",
      "target": 34963
    },
    {
      "buffer": 0,
      "byteLength": 138584,
      "byteOffset": 218016,
      "byteStride": 8,
      "name": "floatBufferViews",
      "target": 34962
    },
    {
      "buffer": 0,
      "byteLength": 415752,
      "byteOffset": 356600,
      "byteStride": 12,
      "name": "floatBufferViews",
      "target": 34962
    },
    {
      "buffer": 0,
      "byteLength": 1976,
      "byteOffset": 772352,
      "name": "floatBufferViews"
    },
    {
      "buffer": 0,
      "byteLength": 5928,
      "byteOffset": 774328,
      "byteStride": 12,
      "name": "floatBufferViews"
    }
  ],
  "buffers": [
    {
      "byteLength": 780256,
      "uri": "scene.bin"
    }
  ],
  "extensionsUsed": [
    "KHR_materials_clearcoat"
  ],
  "materials": [
    {
      "doubleSided": true,
      "name": "Clouds__0",
      "pbrMetallicRoughness": {
        "metallicFactor": 0.0,
        "roughnessFactor": 0.6
      }
    },
    {
      "doubleSided": true,
      "name": "Grass",
      "pbrMetallicRoughness": {
        "baseColorFactor": [
          0.0295677,
          0.2019,
          0.021577,
          1.0
        ],
        "metallicFactor": 0.0,
        "roughnessFactor": 0.9693423598522452
      }
    },
    {
      "doubleSided": true,
      "name": "Dirt",
      "pbrMetallicRoughness": {
        "baseColorFactor": [
          0.214035,
          0.0713921,
          0.028768,
          1.0
        ],
        "metallicFactor": 0.0,
        "roughnessFactor": 0.9759493450771418
      }
    },
    {
      "doubleSided": true,
      "name": "Stone",
      "pbrMetallicRoughness": {
        "baseColorFactor": [
          0.0908378,
          0.0908378,
          0.0908378,
          1.0
        ],
        "metallicFactor": 0.0
      }
    },
    {
      "doubleSided": true,
      "extensions": {
        "KHR_materials_clearcoat": {
          "clearcoatFactor": 1.0,
          "clearcoatRoughnessFactor": 0.04
        }
      },
      "name": "Water",
      "pbrMetallicRoughness": {
        "baseColorFactor": [
          0.051622299999999996,
          0.3178009999999998,
          0.4769899999999999,
          1.0
        ],
        "metallicFactor": 0.0,
        "roughnessFactor": 0.0
      }
    },
    {
      "doubleSided": true,
      "name": "Wood",
      "pbrMetallicRoughness": {
        "baseColorFactor": [
          0.538224,
          0.258435,
          0.115884,
          1.0
        ],
        "metallicFactor": 0.0,
        "roughnessFactor": 0.9312127443585223
      }
    },
    {
      "doubleSided": true,
      "name": "Supports",
      "pbrMetallicRoughness": {
        "baseColorFactor": [
          0.123707,
          0.0273542,
          0.0072063,
          1.0
        ],
        "metallicFactor": 0.0,
        "roughnessFactor": 0.9896281939174624
      }
    },
    {
      "doubleSided": true,
      "name": "Flag",
      "pbrMetallicRoughness": {
        "baseColorFactor": [
          0.0,
          0.0,
          0.0,
          1.0
        ],
        "metallicFactor": 0.0
      }
    }
  ],
  "meshes": [
    {
      "name": "Island_Grass_0",
      "primitives": [
        {
          "attributes": {
            "NORMAL": 1,
            "POSITION": 0,
            "TEXCOORD_0": 2
          },
          "indices": 3,
          "material": 1,
          "mode": 4
        }
      ]
    },
    {
      "name": "Island_Dirt_0",
      "primitives": [
        {
          "attributes": {
            "NORMAL": 5,
            "POSITION": 4,
            "TEXCOORD_0": 6
          },
          "indices": 7,
          "material": 2,
          "mode": 4
        }
      ]
    },
    {
      "name": "Island_Stone_0",
      "primitives": [
        {
          "attributes": {
            "NORMAL": 9,
            "POSITION": 8,
            "TEXCOORD_0": 10
          },
          "indices": 11,
          "material": 3,
          "mode": 4
        }
      ]
    },
    {
      "name": "Island_Water_0",
      "primitives": [
        {
          "attributes": {
            "NORMAL": 13,
            "POSITION": 12,
            "TEXCOORD_0": 14
          },
          "indices": 15,
          "material": 4,
          "mode": 4
        }
      ]
    },
    {
      "name": "Island_Wood_0",
      "primitives": [
        {
          "attributes": {
            "NORMAL": 17,
            "POSITION": 16,
            "TEXCOORD_0": 18
          },
          "indices": 19,
          "material": 5,
          "mode": 4
        }
      ]
    },
    {
      "name": "Island_Supports_0",
      "primitives": [
        {
          "attributes": {
            "NORMAL": 21,
            "POSITION": 20,
            "TEXCOORD_0": 22
          },
          "indices": 23,
          "material": 6,
          "mode": 4
        }
      ]
    },
    {
      "name": "Island_Flag_0",
      "primitives": [
        {
          "attributes": {
            "NORMAL": 25,
            "POSITION": 24,
            "TEXCOORD_0": 26
          },
          "indices": 27,
          "material": 7,
          "mode": 4
        }
      ]
    },
    {
      "name": "Clouds__0",
      "primitives": [
        {
          "attributes": {
            "NORMAL": 29,
            "POSITION": 28,
            "TEXCOORD_0": 30
          },
          "indices": 31,
          "material": 0,
          "mode": 4
        }
      ]
    }
  ],
  "nodes": [
    {
      "children": [
        1
      ],
      "matrix": [
        1.0,
        0.0,
        0.0,
        0.0,
        0.0,
        2.220446049250313e-16,
        -1.0,
        0.0,
        0.0,
        1.0,
        2.220446049250313e-16,
        0.0,
        0.0,
        0.0,
        0.0,
        1.0
      ],
      "name": "Sketchfab_model"
    },
    {
      "children": [
        2
      ],
      "matrix": [
        0.009999999776482582,
        0.0,
        0.0,
        0.0,
        0.0,
        0.0,
        0.009999999776482582,
        0.0,
        0.0,
        -0.009999999776482582,
        0.0,
        0.0,
        0.0,
        0.0,
        0.0,
        1.0
      ],
      "name": "a9544074fdef49188fc584166e7bd0eb.fbx"
    },
    {
      "children": [
        3
      ],
      "name": "Object_2"
    },
    {
      "children": [
        4,
        12,
        14,
        17
      ],
      "name": "RootNode"
    },
    {
      "children": [
        5,
        6,
        7,
        8,
        9,
        10,
        11
      ],
      "name": "Island",
      "rotation": [
        -0.7071068286895752,
        0.0,
        0.0,
        0.7071067094802856
      ],
      "scale": [
        100.0,
        100.0,
        100.0
      ],
      "translation": [
        0.0,
        40.18991470336914,
        0.0
      ]
    },
    {
      "mesh": 0,
      "name": "Island_Grass_0"
    },
    {
      "mesh": 1,
      "name": "Island_Dirt_0"
    },
    {
      "mesh": 2,
      "name": "Island_Stone_0"
    },
    {
      "mesh": 3,
      "name": "Island_Water_0"
    },
    {
      "mesh": 4,
      "name": "Island_Wood_0"
    },
    {
      "mesh": 5,
      "name": "Island_Supports_0"
    },
    {
      "mesh": 6,
      "name": "Island_Flag_0"
    },
    {
      "children": [
        13
      ],
      "name": "Clouds",
      "rotation": [
        -0.453064501285553,
        -0.24262288212776184,
        0.2644040286540985,
        0.8160620331764221
      ],
      "scale": [
        274.7353515625,
        274.7353515625,
        274.7353515625
      ],
      "translation": [
        -1645.2860107421875,
        -315.3150634765625,
        1069.18701171875
      ]
    },
    {
      "mesh": 7,
      "name": "Clouds__0"
    },
    {
      "children": [
        15
      ],
      "name": "Sun",
      "rotation": [
        0.21743276715278625,
        -0.08466774970293045,
        0.42706236243247986,
        0.8735972046852112
      ],
      "scale": [
        100.0,
        100.00000762939453,
        100.0
      ],
      "translation": [
        0.0,
        2105.909423828125,
        3550.426513671875
      ]
    },
    {
      "children": [
        16
      ],
      "matrix": [
        1.0,
        0.0,
        0.0,
        0.0,
        0.0,
        2.220446049250313e-16,
        1.0,
        0.0,
        0.0,
        -1.0,
        2.220446049250313e-16,
        0.0,
        0.0,
        0.0,
        0.0,
        1.0
      ],
      "name": "Object_15"
    },
    {
      "name": "Object_16"
    },
    {
      "children": [
        18
      ],
      "name": "Camera",
      "rotation": [
        -0.04535599797964096,
        0.7991990447044373,
        -0.033947233110666275,
        0.5983906388282776
      ],
      "scale": [
        99.99999237060547,
        99.99999237060547,
        99.99999237060547
      ],
      "translation": [
        2568.953369140625,
        768.0933227539063,
        9076.0986328125
      ]
    },
    {
      "name": "Object_18"
    }
  ],
  "scene": 0,
  "scenes": [
    {
      "name": "Sketchfab_Scene",
      "nodes": [
        0
      ]
    }
  ]
}
